:FULLY-SPECIFIED
:FORCE-ALL-JOINTS-BE-3DOF
:DEGREES
374
root 6.18429 16.5206 -15.7948 9.01752 -16.6167 -5.95468
lfemur -39.24 19.3824 -10.9232
ltibia 56.8867 0 0
lfoot -5.36511 0.505497 0
ltoes 13.6269 0 0
rfemur -23.43 -4.19905 30.7813
rtibia 41.0386 0 0
rfoot -20.9752 0.770735 0
rtoes 15.973 0 0
lowerback 4.34079 1.90986 3.0949
upperback 2.36518 2.66374 0.943737
thorax 0.142189 1.34786 -0.888239
lowerneck -7.40527 -1.70086 2.82876
upperneck 0.11602 -2.57846 2.39291
head 1.30068 -1.23659 0.182312
lclavicle 5.74938e-15 -6.34222e-16 0
lhumerus -40.9253 -22.8123 95.6645
lradius 55.4053 0 0
lwrist 16.9977 0 0
lhand -18.2224 3.57021 0
lfingers 7.12502 0 0
lthumb 8.04977 33.275 0
rclavicle 5.74938e-15 -6.34222e-16 0
rhumerus -38.5073 12.2532 -93.5164
rradius 62.1955 0 0
rwrist 8.45326 0 0
rhand -16.642 -22.9174 0
rfingers 7.12502 0 0
rthumb 9.57496 -772.461 0
375
root 6.13867 16.5251 -15.676 9.12265 -17.4687 -6.12917
lfemur -40.6403 19.5287 -11.5265
ltibia 56.0072 0 0
lfoot -5.91007 0.975853 0
ltoes 13.5765 0 0
rfemur -22.7304 -3.45198 30.9043
rtibia 40.7206 0 0
rfoot -21.3038 0.740334 0
rtoes 16.3986 0 0
lowerback 4.47127 2.01639 3.25933
upperback 2.38701 2.81325 0.895878
thorax 0.101333 1.42404 -1.03668
lowerneck -7.39781 -1.53809 3.00042
upperneck 0.064579 -2.37182 2.28393
head 1.27544 -1.1364 0.127182
lclavicle 6.11026e-15 -1.38203e-15 0
lhumerus -40.692 -22.7822 95.1953
lradius 55.2845 0 0
lwrist 17.0662 0 0
lhand -19.0171 3.25887 0
lfingers 7.12502 0 0
lthumb 7.28369 33.0103 0
rclavicle 6.11026e-15 -1.38203e-15 0
rhumerus -38.4441 12.6584 -93.6298
rradius 61.3428 0 0
rwrist 8.81569 0 0
rhand -15.5463 -22.0337 0
rfingers 7.12502 0 0
rthumb 10.6326 -771.558 0
376
root 6.09306 16.5295 -15.5572 9.22779 -18.3206 -6.30365
lfemur -42.0406 19.6749 -12.1297
ltibia 55.1277 0 0
lfoot -6.45502 1.44621 0
ltoes 13.5261 0 0
rfemur -22.0307 -2.70491 31.0273
rtibia 40.4026 0 0
rfoot -21.6323 0.709934 0
rtoes 16.8242 0 0
lowerback 4.60174 2.12292 3.42375
upperback 2.40884 2.96277 0.848019
thorax 0.060478 1.50022 -1.18513
lowerneck -7.39035 -1.37533 3.17209
upperneck 0.013138 -2.16517 2.17496
head 1.25019 -1.0362 0.0720513
lclavicle 6.47115e-15 -2.12984e-15 0
lhumerus -40.4586 -22.7521 94.7262
lradius 55.1636 0 0
lwrist 17.1347 0 0
lhand -19.8119 2.94754 0
lfingers 7.12502 0 0
lthumb 6.51761 32.7456 0
rclavicle 6.47115e-15 -2.12984e-15 0
rhumerus -38.3809 13.0637 -93.7431
rradius 60.49 0 0
rwrist 9.17812 0 0
rhand -14.4506 -21.15 0
rfingers 7.12502 0 0
rthumb 11.6901 -770.655 0
377
root 6.04744 16.534 -15.4383 9.33292 -19.1726 -6.47813
lfemur -43.4408 19.8212 -12.7329
ltibia 54.2482 0 0
lfoot -6.99998 1.91657 0
ltoes 13.4757 0 0
rfemur -21.331 -1.95785 31.1502
rtibia 40.0846 0 0
rfoot -21.9609 0.679534 0
rtoes 17.2499 0 0
lowerback 4.73221 2.22944 3.58817
upperback 2.43067 3.11228 0.80016
thorax 0.0196225 1.57639 -1.33357
lowerneck -7.38288 -1.21257 3.34376
upperneck -0.038303 -1.95853 2.06598
head 1.22494 -0.93601 0.0169209
lclavicle 6.83204e-15 -2.87764e-15 0
lhumerus -40.2253 -22.7221 94.257
lradius 55.0428 0 0
lwrist 17.2032 0 0
lhand -20.6067 2.6362 0
lfingers 7.12502 0 0
lthumb 5.75153 32.4809 0
rclavicle 6.83204e-15 -2.87764e-15 0
rhumerus -38.3177 13.469 -93.8564
rradius 59.6373 0 0
rwrist 9.54054 0 0
rhand -13.355 -20.2663 0
rfingers 7.12502 0 0
rthumb 12.7477 -769.752 0
378
root 6.00183 16.5384 -15.3195 9.43806 -20.0245 -6.65262
lfemur -44.8411 19.9674 -13.3362
ltibia 53.3687 0 0
lfoot -7.54493 2.38692 0
ltoes 13.4253 0 0
rfemur -20.6314 -1.21078 31.2732
rtibia 39.7665 0 0
rfoot -22.2894 0.649133 0
rtoes 17.6755 0 0
lowerback 4.86269 2.33597 3.7526
upperback 2.4525 3.2618 0.752301
thorax -0.021233 1.65257 -1.48202
lowerneck -7.37542 -1.0498 3.51543
upperneck -0.089744 -1.75188 1.95701
head 1.1997 -0.835818 -0.0382096
lclavicle 7.19293e-15 -3.62545e-15 0
lhumerus -39.9919 -22.692 93.7879
lradius 54.9219 0 0
lwrist 17.2717 0 0
lhand -21.4014 2.32486 0
lfingers 7.12502 0 0
lthumb 4.98544 32.2162 0
rclavicle 7.19293e-15 -3.62545e-15 0
rhumerus -38.2545 13.8742 -93.9698
rradius 58.7846 0 0
rwrist 9.90297 0 0
rhand -12.2593 -19.3826 0
rfingers 7.12502 0 0
rthumb 13.8053 -768.849 0
379
root 5.95621 16.5429 -15.2007 9.54319 -20.8765 -6.8271
lfemur -46.2414 20.1137 -13.9394
ltibia 52.4892 0 0
lfoot -8.08989 2.85728 0
ltoes 13.3749 0 0
rfemur -19.9317 -0.463717 31.3962
rtibia 39.4485 0 0
rfoot -22.618 0.618733 0
rtoes 18.1011 0 0
lowerback 4.99316 2.4425 3.91702
upperback 2.47433 3.41131 0.704442
thorax -0.0620885 1.72875 -1.63046
lowerneck -7.36796 -0.887037 3.6871
upperneck -0.141185 -1.54524 1.84803
head 1.17445 -0.735625 -0.0933401
lclavicle 7.55382e-15 -4.37326e-15 0
lhumerus -39.7586 -22.6619 93.3187
lradius 54.8011 0 0
lwrist 17.3402 0 0
lhand -22.1962 2.01352 0
lfingers 7.12502 0 0
lthumb 4.21936 31.9515 0
rclavicle 7.55382e-15 -4.37326e-15 0
rhumerus -38.1913 14.2795 -94.0831
rradius 57.9319 0 0
rwrist 10.2654 0 0
rhand -11.1636 -18.4989 0
rfingers 7.12502 0 0
rthumb 14.8629 -767.946 0
380
root 5.90715 16.5364 -15.0547 9.33746 -21.463 -6.74755
lfemur -45.5685 19.2474 -13.5957
ltibia 51.8537 0 0
lfoot -8.01137 3.43765 0
ltoes 12.7695 0 0
rfemur -20.1628 -1.25192 31.213
rtibia 40.9362 0 0
rfoot -21.5331 0.510461 0
rtoes 18.5997 0 0
lowerback 4.94784 2.5328 3.79204
upperback 2.43268 3.52547 0.62105
thorax -0.0770401 1.78494 -1.64949
lowerneck -7.31357 -0.807663 3.81581
upperneck 0.0301048 -1.45282 1.85604
head 1.22214 -0.684371 -0.109822
lclavicle 6.41791e-15 -4.84656e-15 0
lhumerus -39.9772 -22.5049 93.3484
lradius 54.6565 0 0
lwrist 17.4023 0 0
lhand -21.844 2.13331 0
lfingers 7.12502 0 0
lthumb 4.55924 32.0587 0
rclavicle 6.41791e-15 -4.84656e-15 0
rhumerus -38.5033 14.1417 -94.0316
rradius 58.0234 0 0
rwrist 10.1694 0 0
rhand -11.4576 -18.4673 0
rfingers 7.12502 0 0
rthumb 14.5794 -767.931 0
381
root 5.85809 16.53 -14.9087 9.13172 -22.0495 -6.668
lfemur -44.8956 18.381 -13.2521
ltibia 51.2182 0 0
lfoot -7.93285 4.01802 0
ltoes 12.164 0 0
rfemur -20.3939 -2.04012 31.0298
rtibia 42.4239 0 0
rfoot -20.4483 0.402189 0
rtoes 19.0983 0 0
lowerback 4.90252 2.62311 3.66706
upperback 2.39103 3.63964 0.537657
thorax -0.0919918 1.84112 -1.66852
lowerneck -7.25919 -0.728289 3.94453
upperneck 0.201395 -1.36041 1.86405
head 1.26982 -0.633118 -0.126304
lclavicle 5.282e-15 -5.31985e-15 0
lhumerus -40.1958 -22.3478 93.3781
lradius 54.5119 0 0
lwrist 17.4643 0 0
lhand -21.4919 2.25311 0
lfingers 7.12502 0 0
lthumb 4.89913 32.1658 0
rclavicle 5.282e-15 -5.31985e-15 0
rhumerus -38.8152 14.004 -93.98
rradius 58.1149 0 0
rwrist 10.0733 0 0
rhand -11.7515 -18.4356 0
rfingers 7.12502 0 0
rthumb 14.296 -767.916 0
382
root 5.80903 16.5235 -14.7628 8.92599 -22.6359 -6.58845
lfemur -44.2227 17.5147 -12.9084
ltibia 50.5827 0 0
lfoot -7.85433 4.59838 0
ltoes 11.5586 0 0
rfemur -20.625 -2.82831 30.8467
rtibia 43.9115 0 0
rfoot -19.3634 0.293917 0
rtoes 19.5969 0 0
lowerback 4.8572 2.71341 3.54208
upperback 2.34937 3.7538 0.454265
thorax -0.106943 1.89731 -1.68755
lowerneck -7.2048 -0.648915 4.07324
upperneck 0.372684 -1.26799 1.87205
head 1.31751 -0.581864 -0.142786
lclavicle 4.14609e-15 -5.79315e-15 0
lhumerus -40.4144 -22.1908 93.4077
lradius 54.3673 0 0
lwrist 17.5264 0 0
lhand -21.1397 2.3729 0
lfingers 7.12502 0 0
lthumb 5.23901 32.273 0
rclavicle 4.14609e-15 -5.79315e-15 0
rhumerus -39.1272 13.8662 -93.9285
rradius 58.2064 0 0
rwrist 9.97731 0 0
rhand -12.0455 -18.404 0
rfingers 7.12502 0 0
rthumb 14.0125 -767.9 0
383
root 5.75997 16.5171 -14.6168 8.72025 -23.2224 -6.5089
lfemur -43.5498 16.6484 -12.5647
ltibia 49.9472 0 0
lfoot -7.7758 5.17875 0
ltoes 10.9532 0 0
rfemur -20.8561 -3.61651 30.6635
rtibia 45.3992 0 0
rfoot -18.2785 0.185645 0
rtoes 20.0955 0 0
lowerback 4.81188 2.80372 3.41709
upperback 2.30772 3.86796 0.370872
thorax -0.121895 1.9535 -1.70658
lowerneck -7.15042 -0.569541 4.20195
upperneck 0.543974 -1.17557 1.88006
head 1.3652 -0.530611 -0.159268
lclavicle 3.01018e-15 -6.26645e-15 0
lhumerus -40.633 -22.0337 93.4374
lradius 54.2227 0 0
lwrist 17.5885 0 0
lhand -20.7876 2.49269 0
lfingers 7.12502 0 0
lthumb 5.57889 32.3801 0
rclavicle 3.01018e-15 -6.26645e-15 0
rhumerus -39.4392 13.7285 -93.877
rradius 58.2979 0 0
rwrist 9.88129 0 0
rhand -12.3394 -18.3724 0
rfingers 7.12502 0 0
rthumb 13.7291 -767.885 0
384
root 5.71091 16.5106 -14.4708 8.51452 -23.8089 -6.42935
lfemur -42.8769 15.7821 -12.221
ltibia 49.3117 0 0
lfoot -7.69728 5.75912 0
ltoes 10.3477 0 0
rfemur -21.0872 -4.40471 30.4803
rtibia 46.8869 0 0
rfoot -17.1936 0.0773728 0
rtoes 20.5941 0 0
lowerback 4.76656 2.89402 3.29211
upperback 2.26607 3.98212 0.28748
thorax -0.136847 2.00968 -1.72561
lowerneck -7.09603 -0.490167 4.33067
upperneck 0.715264 -1.08316 1.88807
head 1.41288 -0.479357 -0.175749
lclavicle 1.87427e-15 -6.73975e-15 0
lhumerus -40.8516 -21.8767 93.4671
lradius 54.0781 0 0
lwrist 17.6505 0 0
lhand -20.4354 2.61249 0
lfingers 7.12502 0 0
lthumb 5.91877 32.4873 0
rclavicle 1.87427e-15 -6.73975e-15 0
rhumerus -39.7512 13.5907 -93.8255
rradius 58.3894 0 0
rwrist 9.78526 0 0
rhand -12.6334 -18.3408 0
rfingers 7.12502 0 0
rthumb 13.4456 -767.87 0
385
root 5.66185 16.5042 -14.3248 8.30878 -24.3954 -6.34981
lfemur -42.2039 14.9157 -11.8774
ltibia 48.6762 0 0
lfoot -7.61876 6.33949 0
ltoes 9.74229 0 0
rfemur -21.3184 -5.19291 30.2971
rtibia 48.3746 0 0
rfoot -16.1088 -0.0308993 0
rtoes 21.0927 0 0
lowerback 4.72124 2.98433 3.16713
upperback 2.22442 4.09629 0.204087
thorax -0.151798 2.06587 -1.74464
lowerneck -7.04165 -0.410794 4.45938
upperneck 0.886554 -0.990738 1.89608
head 1.46057 -0.428104 -0.192231
lclavicle 7.38357e-16 -7.21304e-15 0
lhumerus -41.0701 -21.7196 93.4968
lradius 53.9335 0 0
lwrist 17.7126 0 0
lhand -20.0832 2.73228 0
lfingers 7.12502 0 0
lthumb 6.25866 32.5944 0
rclavicle 7.38357e-16 -7.21304e-15 0
rhumerus -40.0631 13.4529 -93.7739
rradius 58.4809 0 0
rwrist 9.68923 0 0
rhand -12.9273 -18.3091 0
rfingers 7.12502 0 0
rthumb 13.1622 -767.855 0
